<?xml version="1.0" encoding="UTF-8" standalone="no"?>
<!-- Created with Inkscape (http://www.inkscape.org/) -->

<svg
   width="1000"
   height="1000"
   viewBox="0 0 250 250"
   version="1.1"
   id="svg1"
   inkscape:version="1.3.2 (091e20ef0f, 2023-11-25, custom)"
   sodipodi:docname="favicon.svg"
   inkscape:export-filename="favicon.png"
   inkscape:export-xdpi="12.288"
   inkscape:export-ydpi="12.288"
   xmlns:inkscape="http://www.inkscape.org/namespaces/inkscape"
   xmlns:sodipodi="http://sodipodi.sourceforge.net/DTD/sodipodi-0.dtd"
   xmlns="http://www.w3.org/2000/svg"
   xmlns:svg="http://www.w3.org/2000/svg">
  <sodipodi:namedview
     id="namedview1"
     pagecolor="#9c9c9c"
     bordercolor="#000000"
     borderopacity="0.44313725"
     inkscape:showpageshadow="2"
     inkscape:pageopacity="0.0"
     inkscape:pagecheckerboard="0"
     inkscape:deskcolor="#3f3f3f"
     inkscape:document-units="px"
     inkscape:zoom="0.60539368"
     inkscape:cx="449.29442"
     inkscape:cy="460.85714"
     inkscape:window-width="1920"
     inkscape:window-height="1008"
     inkscape:window-x="0"
     inkscape:window-y="0"
     inkscape:window-maximized="1"
     inkscape:current-layer="layer1" />
  <defs
     id="defs1" />
  <g
     inkscape:label="Layer 1"
     inkscape:groupmode="layer"
     id="layer1">
    <ellipse
       style="fill:#fe3319;fill-opacity:1;fill-rule:evenodd;stroke:#db210a;stroke-width:10;stroke-linecap:butt;stroke-linejoin:round;stroke-miterlimit:100;stroke-dasharray:none;stroke-opacity:1"
       id="path1"
       cx="125.77962"
       cy="139.83002"
       rx="88.986732"
       ry="80.106117" />
    <path
       style="fill:#25ba09;fill-opacity:1;fill-rule:evenodd;stroke:#1d8f07;stroke-width:10;stroke-linecap:butt;stroke-linejoin:miter;stroke-miterlimit:100;stroke-dasharray:none;stroke-opacity:1"
       d="M 107.4234,91.889868 C 98.182219,103.55268 96.084864,117.09861 97.325965,131.55919 106.61113,117.02534 115.67325,102.31158 132.29169,93.693102 143.05019,96.00216 161.59822,105.91101 174.30786,114.6948 169.75974,100.30635 163.46652,88.454107 146.98472,80.462825 159.2236,73.640224 170.89595,75.094041 184.00566,78.828707 170.88454,68.309544 147.93047,62.094084 131.9112,66.808314 114.73809,55.998028 95.630096,52.502744 73.249706,57.765764 85.720954,60.271109 104.11068,67.199648 110.2245,74.946555 92.893342,77.116852 73.859292,88.213693 63.271302,102.20219 77.874376,94.790076 91.096576,91.321412 107.4234,91.889868 Z"
       id="path2"
       sodipodi:nodetypes="ccccccccccc" />
    <path
       style="fill:#25ba09;fill-opacity:1;fill-rule:evenodd;stroke:#1d8f07;stroke-width:10;stroke-linecap:butt;stroke-linejoin:miter;stroke-miterlimit:100;stroke-dasharray:none;stroke-opacity:1"
       d="m 122.5931,72.831344 c 1.95112,-16.811302 5.25227,-32.734665 12.17831,-46.27391 10.44495,-1.795212 18.15027,2.290188 25.20656,7.768683 -10.83906,11.894698 -20.08604,24.985226 -24.10711,42.000966"
       id="path3"
       sodipodi:nodetypes="cccc" />
  </g>
</svg>
